<svg xmlns="http://www.w3.org/2000/svg" fill="none" viewBox="0 0 314 386.908">
    <!-- Fill -->
    <path fill="#32c7f5" d="M114 113.5h100v100H114zm0-100.001h100v100H114zm0 200.001h100v100H114zm0 0v100c-50 0-100-50-100-100zm100 0v100c50 0 100-50 100-100zm0-100h100v100H214zm-100 0v-100c-50 0-100 50-100 100zm100 0v-100c50 0 100 50 100 100zm-200 0h100v100H14z"/>
    <!-- Shark fin -->
    <path fill="#32c7f5" d="M126.806 385.828c-3.28 2.581-8.092.244-8.092-3.93C116.463 349.038 114 313.5 114 313.5h100s-58.666 49.878-87.194 72.328z"/>
    <!-- Highlight -->
    <path fill="#86e2ff" d="M30.5 115c0 15.6-6 19.833-12 20C.5 135.5 0 121 0 115 0 30.5 55.4 0 108 0c14 0 31.9.5 31.9 16.5 0 19-34.4 14-35.9 14-62.201 0-73.5 65-73.5 84.5z"/>
</svg>